<svg xmlns="http://www.w3.org/2000/svg" viewBox="0 0 21 13.41"><title>email_icon</title><g id="Layer_2" data-name="Layer 2"><g id="Layer_1-2" data-name="Layer 1"><path d="M20.24,2.28A1.52,1.52,0,0,0,18.72.76H2.28A1.52,1.52,0,0,0,.76,2.28v8.86a1.52,1.52,0,0,0,1.52,1.52H18.72a1.52,1.52,0,0,0,1.52-1.52Zm.76,0v8.86a2.28,2.28,0,0,1-2.28,2.28H2.28A2.28,2.28,0,0,1,0,11.13V2.28A2.28,2.28,0,0,1,2.28,0H18.72A2.28,2.28,0,0,1,21,2.28Zm-2.53-.13.25.28-5.31,5L18.19,11l-.23.3L13.13,7.67,11.92,8.8a2.05,2.05,0,0,1-1.42.56A2,2,0,0,1,9.08,8.8L7.87,7.67,3,11.28,2.78,11,7.57,7.39l-5.29-5,.25-.28L9.34,8.5a1.72,1.72,0,0,0,2.33,0Z"/></g></g></svg>